# xmcd
#
# Track frame offsets: 
#        150
#        17366
#        36510
#        54555
#        70315
#        86326
#        108182
#        123368
#        141211
#        159005
#        176065
#        189110
#        205757
#        223046
#        238242
#        257632
#        278317
#        295006
#        313142
#        328502
#
# Disc length: 4617 seconds
#
# Revision: 0
# Processed by: cddbd v1.5.2PL0 Copyright (c) Steve Scherf et al.
# Submitted via: ExactAudioCopy v0.99pb4
#
DISCID=14120714
DTITLE=Various Artist - HP200946
DYEAR=2009
DGENRE=Top 40
TTITLE0=SafetySuit - Annie
TTITLE1=Rihanna feat Young Jeezy - Hard [Clean]
TTITLE2=R. Kelly - Echo
TTITLE3=Mary J. Blige - I Am
TTITLE4=Ryan Leslie - I Choose You
TTITLE5=Young Money feat Lloyd - Bedrock
TTITLE6=Big Bank Black feat Kandi - Try It Out [Clean]
TTITLE7=Raheem DeVaughn feat Ludacris - Bulletproof [Radio Version]
TTITLE8=Keith Urban - 'Til Summer Comes Around [Radio Edit]
TTITLE9=Montgomery Gentry - Oughta Be More Songs About That
TTITLE10=Mudvayne - Scream With Me [Album Version]
TTITLE11=Nickelback - Shakin' Hands [Radio Edit]
TTITLE12=Julian Casablancas - Out Of The Blue
TTITLE13=Sick Puppies - Odd One [Radio Edit]
TTITLE14=Motley Crue - Animal In Me [Remix]
TTITLE15=Lola (Jennifer Lopez) feat Pitbull - Fresh Out The Oven [Hex 
TTITLE15=Hector Radio Edit]
TTITLE16=N'Dambi - Can't Hardly wait [Stonebridge Radio Edit - Clean]
TTITLE17=Anjulie - Rain [DJ Escape Radio Edit]
TTITLE18=Starfield - Rediscover You [Album Version]
TTITLE19=Switchfoot - Always [Radio Edit]
EXTD=
EXTT0=
EXTT1=
EXTT2=
EXTT3=
EXTT4=
EXTT5=
EXTT6=
EXTT7=
EXTT8=
EXTT9=
EXTT10=
EXTT11=
EXTT12=
EXTT13=
EXTT14=
EXTT15=
EXTT16=
EXTT17=
EXTT18=
EXTT19=
PLAYORDER=
